<?xml version="1.0" encoding="UTF-8" standalone="no"?>
<!DOCTYPE svg PUBLIC "-//W3C//DTD SVG 1.1//EN" "http://www.w3.org/Graphics/SVG/1.1/DTD/svg11.dtd">
<svg width="100%" height="100%" viewBox="0 0 1105 155" version="1.1" xmlns="http://www.w3.org/2000/svg" xmlns:xlink="http://www.w3.org/1999/xlink" xml:space="preserve" xmlns:serif="http://www.serif.com/" style="fill-rule:evenodd;clip-rule:evenodd;stroke-linejoin:round;stroke-miterlimit:2;">
    <g transform="matrix(4.16667,0,0,4.16667,3.55271e-15,-2.08333)">
        <g transform="matrix(1,0,0,1,-8.88178e-16,-0.417999)">
            <path d="M52.136,18.695L53.898,18.695C56.414,18.695 58.679,17.868 58.679,14.956C58.679,12.044 56.486,11.038 53.898,11.038L52.136,11.038L52.136,18.695ZM47.103,7.083L53.466,7.083C58.93,7.083 63.927,8.665 63.927,14.668C63.927,20.528 59.65,22.649 54.257,22.649L52.136,22.649L52.136,32.176L47.103,32.176L47.103,7.083Z" style="fill:rgb(35,31,32);fill-rule:nonzero;"/>
        </g>
        <g transform="matrix(1,0,0,1,-8.88178e-16,-0.417999)">
            <path d="M65.759,13.662L70.037,13.662L70.037,17.868L70.109,17.868C70.325,16.142 72.301,13.23 75.177,13.23C75.645,13.23 76.148,13.23 76.652,13.374L76.652,18.227C76.22,17.976 75.357,17.832 74.495,17.832C70.576,17.832 70.576,22.721 70.576,25.381L70.576,32.176L65.759,32.176L65.759,13.662Z" style="fill:rgb(35,31,32);fill-rule:nonzero;"/>
        </g>
        <g transform="matrix(1,0,0,1,-8.88178e-16,-0.417999)">
            <path d="M86.758,28.869C90.46,28.869 91.431,25.561 91.431,22.469C91.431,19.629 89.921,16.969 86.758,16.969C83.63,16.969 82.121,19.701 82.121,22.469C82.121,25.525 83.091,28.869 86.758,28.869ZM86.758,13.23C92.258,13.23 96.464,16.933 96.464,23.044C96.464,28.365 92.906,32.607 86.758,32.607C80.647,32.607 77.087,28.365 77.087,23.044C77.087,16.933 81.293,13.23 86.758,13.23Z" style="fill:rgb(35,31,32);fill-rule:nonzero;"/>
        </g>
        <g transform="matrix(1,0,0,1,-8.88178e-16,-0.417999)">
            <path d="M101.101,17.185L97.541,17.185L97.541,13.662L101.101,13.662L101.101,9.959L105.918,8.413L105.918,13.662L110.195,13.662L110.195,17.185L105.918,17.185L105.918,25.812C105.918,27.395 106.349,28.869 108.183,28.869C109.045,28.869 109.872,28.688 110.375,28.365L110.52,32.176C109.513,32.463 108.398,32.607 106.96,32.607C103.186,32.607 101.101,30.27 101.101,26.603L101.101,17.185Z" style="fill:rgb(35,31,32);fill-rule:nonzero;"/>
        </g>
        <g transform="matrix(1,0,0,1,-8.88178e-16,-0.417999)">
            <path d="M124.395,21.103C124.25,18.767 123.172,16.753 120.476,16.753C117.779,16.753 116.413,18.623 116.197,21.103L124.395,21.103ZM127.63,31.133C125.868,32.104 123.854,32.607 121.267,32.607C115.155,32.607 111.596,29.084 111.596,23.009C111.596,17.652 114.436,13.23 120.188,13.23C127.055,13.23 128.996,17.94 128.996,24.411L116.197,24.411C116.413,27.395 118.498,29.084 121.482,29.084C123.818,29.084 125.832,28.221 127.63,27.215L127.63,31.133Z" style="fill:rgb(35,31,32);fill-rule:nonzero;"/>
        </g>
        <g transform="matrix(1,0,0,1,-8.88178e-16,-0.417999)">
            <path d="M144.056,17.652C143.193,17.257 142.259,16.969 140.785,16.969C137.801,16.969 135.896,19.342 135.896,22.829C135.896,26.244 137.514,28.869 140.893,28.869C142.259,28.869 143.769,28.365 144.596,28.005L144.811,31.996C143.409,32.427 141.971,32.607 139.994,32.607C133.918,32.607 130.862,28.473 130.862,22.829C130.862,17.472 134.026,13.23 139.814,13.23C141.755,13.23 143.157,13.446 144.487,13.841L144.056,17.652Z" style="fill:rgb(35,31,32);fill-rule:nonzero;"/>
        </g>
        <g transform="matrix(1,0,0,1,-8.88178e-16,-0.417999)">
            <path d="M148.872,17.185L145.313,17.185L145.313,13.662L148.872,13.662L148.872,9.959L153.689,8.413L153.689,13.662L157.967,13.662L157.967,17.185L153.689,17.185L153.689,25.812C153.689,27.395 154.12,28.869 155.954,28.869C156.816,28.869 157.644,28.688 158.146,28.365L158.291,32.176C157.284,32.463 156.17,32.607 154.731,32.607C150.957,32.607 148.872,30.27 148.872,26.603L148.872,17.185Z" style="fill:rgb(35,31,32);fill-rule:nonzero;"/>
        </g>
        <g transform="matrix(1,0,0,1,-8.88178e-16,-0.417999)">
            <path d="M169.038,28.869C172.74,28.869 173.711,25.561 173.711,22.469C173.711,19.629 172.201,16.969 169.038,16.969C165.91,16.969 164.4,19.701 164.4,22.469C164.4,25.525 165.371,28.869 169.038,28.869ZM169.038,13.23C174.538,13.23 178.744,16.933 178.744,23.044C178.744,28.365 175.186,32.607 169.038,32.607C162.927,32.607 159.367,28.365 159.367,23.044C159.367,16.933 163.573,13.23 169.038,13.23Z" style="fill:rgb(35,31,32);fill-rule:nonzero;"/>
        </g>
        <g transform="matrix(1,0,0,1,-8.88178e-16,-0.417999)">
            <path d="M181.904,13.662L186.183,13.662L186.183,17.868L186.255,17.868C186.471,16.142 188.447,13.23 191.323,13.23C191.791,13.23 192.294,13.23 192.798,13.374L192.798,18.227C192.366,17.976 191.503,17.832 190.641,17.832C186.722,17.832 186.722,22.721 186.722,25.381L186.722,32.176L181.904,32.176L181.904,13.662Z" style="fill:rgb(35,31,32);fill-rule:nonzero;"/>
        </g>
        <g transform="matrix(1,0,0,1,-8.88178e-16,-0.417999)">
            <path d="M206.062,17.544C204.587,17.041 203.509,16.753 201.747,16.753C200.453,16.753 198.907,17.221 198.907,18.802C198.907,21.75 207.283,19.881 207.283,26.568C207.283,30.881 203.437,32.607 199.519,32.607C197.685,32.607 195.815,32.284 194.054,31.816L194.342,27.862C195.852,28.617 197.434,29.084 199.087,29.084C200.31,29.084 202.251,28.617 202.251,26.819C202.251,23.188 193.874,25.669 193.874,18.982C193.874,14.992 197.361,13.23 201.136,13.23C203.401,13.23 204.875,13.59 206.385,13.914L206.062,17.544Z" style="fill:rgb(35,31,32);fill-rule:nonzero;"/>
        </g>
        <g transform="matrix(1,0,0,1,-8.88178e-16,-0.417999)">
            <path d="M210.302,5.213L215.119,5.213L215.119,16.178L215.191,16.178C216.413,14.381 218.498,13.23 221.015,13.23C225.4,13.23 227.306,16.322 227.306,20.492L227.306,32.176L222.488,32.176L222.488,22.29C222.488,20.025 222.453,16.969 219.361,16.969C215.874,16.969 215.119,20.744 215.119,23.117L215.119,32.176L210.302,32.176L210.302,5.213Z" style="fill:rgb(35,31,32);fill-rule:nonzero;"/>
        </g>
        <g transform="matrix(1,0,0,1,-8.88178e-16,-0.417999)">
            <path d="M243.156,21.103C243.013,18.767 241.935,16.753 239.238,16.753C236.542,16.753 235.176,18.623 234.96,21.103L243.156,21.103ZM246.393,31.133C244.631,32.104 242.617,32.607 240.029,32.607C233.918,32.607 230.358,29.084 230.358,23.009C230.358,17.652 233.198,13.23 238.95,13.23C245.817,13.23 247.758,17.94 247.758,24.411L234.96,24.411C235.176,27.395 237.261,29.084 240.245,29.084C242.582,29.084 244.595,28.221 246.393,27.215L246.393,31.133Z" style="fill:rgb(35,31,32);fill-rule:nonzero;"/>
        </g>
        <g transform="matrix(1,0,0,1,-8.88178e-16,-0.417999)">
            <rect x="250.92" y="5.213" width="4.817" height="26.963" style="fill:rgb(35,31,32);fill-rule:nonzero;"/>
        </g>
        <g transform="matrix(1,0,0,1,-8.88178e-16,-0.417999)">
            <rect x="260.193" y="5.213" width="4.818" height="26.963" style="fill:rgb(35,31,32);fill-rule:nonzero;"/>
        </g>
        <g id="White-Background-Rectangle" serif:id="White Background Rectangle" transform="matrix(0.238631,0,0,0.24,0.344221,0.5)">
            <rect x="-1.442" y="66.685" width="155.386" height="33.444" style="fill:white;"/>
        </g>
        <g id="White-Background-Circle" serif:id="White Background Circle" transform="matrix(0.24,0,0,0.24,-0.370457,0.253028)">
            <ellipse cx="78.309" cy="79.806" rx="66.888" ry="66.631" style="fill:white;"/>
        </g>
        <g transform="matrix(1,0,0,1,-8.88178e-16,-0.417999)">
            <path d="M33.624,23.277L33.624,23.275C32.093,30.175 25.938,35.335 18.575,35.335C11.214,35.335 5.058,30.175 3.528,23.275L3.522,23.277L0.076,23.277C0.049,23.277 0.026,23.264 0,23.261L0,35.148C0,36.722 1.276,38 2.852,38L34.229,38C35.804,38 37.082,36.722 37.082,35.148L37.082,23.259C37.051,23.262 37.025,23.277 36.993,23.277L33.624,23.277Z" style="fill:url(#_Linear1);"/>
        </g>
        <g transform="matrix(1,0,0,1,-8.88178e-16,-0.417999)">
            <path d="M18.575,4.511C26.392,4.511 32.833,10.332 33.837,17.873L29.919,17.873C28.95,12.485 24.241,8.396 18.575,8.396C12.909,8.396 8.202,12.485 7.233,17.873L3.313,17.873C4.318,10.333 10.761,4.511 18.575,4.511ZM0.076,19.851L7.048,19.851L7.048,19.923C7.048,26.291 12.21,31.452 18.575,31.452C24.942,31.452 30.103,26.291 30.103,19.923L30.103,19.852L30.102,19.851L36.993,19.851C37.025,19.851 37.051,19.866 37.082,19.869L37.082,3.771C37.082,2.195 35.804,0.918 34.229,0.918L2.852,0.918C1.276,0.918 0,2.195 0,3.771L0,19.866C0.026,19.864 0.049,19.851 0.076,19.851Z" style="fill:url(#_Linear2);"/>
        </g>
    </g>
    <defs>
        <linearGradient id="_Linear1" x1="0" y1="0" x2="1" y2="0" gradientUnits="userSpaceOnUse" gradientTransform="matrix(-1.33013e-06,30.4299,-30.4299,-1.33013e-06,18.5415,3.67629)"><stop offset="0" style="stop-color:rgb(0,174,239);stop-opacity:1"/><stop offset="1" style="stop-color:rgb(32,29,112);stop-opacity:1"/></linearGradient>
        <linearGradient id="_Linear2" x1="0" y1="0" x2="1" y2="0" gradientUnits="userSpaceOnUse" gradientTransform="matrix(-1.33013e-06,30.4299,-30.4299,-1.33013e-06,18.5415,3.67629)"><stop offset="0" style="stop-color:rgb(0,174,239);stop-opacity:1"/><stop offset="1" style="stop-color:rgb(32,29,112);stop-opacity:1"/></linearGradient>
    </defs>
</svg>
